{
  "accessors": [
    {
      "bufferView": 2,
      "componentType": 5126,
      "count": 3068,
      "max": [
        0.33796799182891846,
        0.60617798566818237,
        1
      ],
      "min": [
        -0.33796799182891846,
        -0.60617798566818237,
        -1
      ],
      "type": "VEC3"
    },
    {
      "bufferView": 2,
      "byteOffset": 36816,
      "componentType": 5126,
      "count": 3068,
      "max": [
        0.99998122453689575,
        0.99934422969818115,
        0.99965697526931763
      ],
      "min": [
        -0.99998122453689575,
        -0.99978750944137573,
        -0.98740601539611816
      ],
      "type": "VEC3"
    },
    {
      "bufferView": 3,
      "componentType": 5126,
      "count": 3068,
      "max": [
        1,
        0.99491339921951294,
        0.99955815076828003,
        1
      ],
      "min": [
        -0.99999511241912842,
        -0.9983985424041748,
        -0.9993167519569397,
        -1
      ],
      "type": "VEC4"
    },
    {
      "bufferView": 1,
      "componentType": 5126,
      "count": 3068,
      "max": [
        0.98610198497772217,
        0.98819601535797119
      ],
      "min": [
        0.014900299720466137,
        0.0086216703057289124
      ],
      "type": "VEC2"
    },
    {
      "bufferView": 0,
      "componentType": 5125,
      "count": 15918,
      "max": [
        3067
      ],
      "min": [
        0
      ],
      "type": "SCALAR"
    },
    {
      "bufferView": 2,
      "byteOffset": 73632,
      "componentType": 5126,
      "count": 236,
      "max": [
        0.10170000046491623,
        0.5455620288848877,
        0.77033799886703491
      ],
      "min": [
        -0.10170000046491623,
        0.48176199197769165,
        0.70670902729034424
      ],
      "type": "VEC3"
    },
    {
      "bufferView": 2,
      "byteOffset": 76464,
      "componentType": 5126,
      "count": 236,
      "max": [
        0.9956824779510498,
        0.97561889886856079,
        0.97682702541351318
      ],
      "min": [
        -0.9956824779510498,
        -0.99066454172134399,
        -0.99217110872268677
      ],
      "type": "VEC3"
    },
    {
      "bufferView": 3,
      "byteOffset": 49088,
      "componentType": 5126,
      "count": 236,
      "max": [
        0.98936688899993896,
        0.9296947717666626,
        0.73602300882339478,
        1
      ],
      "min": [
        -0.98971849679946899,
        -0.99942928552627563,
        -0.9985802173614502,
        1
      ],
      "type": "VEC4"
    },
    {
      "bufferView": 1,
      "byteOffset": 24544,
      "componentType": 5126,
      "count": 236,
      "max": [
        0.34629198908805847,
        0.74287897348403931
      ],
      "min": [
        0.022665500640869141,
        0.51452898979187012
      ],
      "type": "VEC2"
    },
    {
      "bufferView": 0,
      "byteOffset": 63672,
      "componentType": 5125,
      "count": 1152,
      "max": [
        235
      ],
      "min": [
        0
      ],
      "type": "SCALAR"
    }
  ],
  "asset": {
    "extras": {
      "author": "zixisun02 (https://sketchfab.com/dogerlo)",
      "license": "CC-BY-4.0 (http://creativecommons.org/licenses/by/4.0/)",
      "source": "https://sketchfab.com/3d-models/crow-45a169ef98804f06a9b7a4af1a04d6f9",
      "title": "Crow"
    },
    "generator": "Sketchfab-9.14.0",
    "version": "2.0"
  },
  "bufferViews": [
    {
      "buffer": 0,
      "byteLength": 68280,
      "byteOffset": 0,
      "name": "floatBufferViews",
      "target": 34963
    },
    {
      "buffer": 0,
      "byteLength": 26432,
      "byteOffset": 68280,
      "byteStride": 8,
      "name": "floatBufferViews",
      "target": 34962
    },
    {
      "buffer": 0,
      "byteLength": 79296,
      "byteOffset": 94712,
      "byteStride": 12,
      "name": "floatBufferViews",
      "target": 34962
    },
    {
      "buffer": 0,
      "byteLength": 52864,
      "byteOffset": 174008,
      "byteStride": 16,
      "name": "floatBufferViews",
      "target": 34962
    }
  ],
  "buffers": [
    {
      "byteLength": 226872,
      "uri": "scene.bin"
    }
  ],
  "images": [
    {
      "uri": "textures/Crow_baseColor.jpeg"
    },
    {
      "uri": "textures/Crow_metallicRoughness.png"
    },
    {
      "uri": "textures/Crow_normal.png"
    }
  ],
  "materials": [
    {
      "doubleSided": true,
      "name": "Crow",
      "normalTexture": {
        "index": 2,
        "scale": 1,
        "texCoord": 0
      },
      "occlusionTexture": {
        "index": 1,
        "strength": 1,
        "texCoord": 0
      },
      "pbrMetallicRoughness": {
        "baseColorFactor": [
          1,
          1,
          1,
          1
        ],
        "baseColorTexture": {
          "index": 0,
          "texCoord": 0
        },
        "metallicFactor": 1,
        "metallicRoughnessTexture": {
          "index": 1,
          "texCoord": 0
        },
        "roughnessFactor": 1
      }
    }
  ],
  "meshes": [
    {
      "name": "defaultMaterial",
      "primitives": [
        {
          "attributes": {
            "NORMAL": 1,
            "POSITION": 0,
            "TANGENT": 2,
            "TEXCOORD_0": 3
          },
          "indices": 4,
          "material": 0,
          "mode": 4
        }
      ]
    },
    {
      "name": "defaultMaterial",
      "primitives": [
        {
          "attributes": {
            "NORMAL": 6,
            "POSITION": 5,
            "TANGENT": 7,
            "TEXCOORD_0": 8
          },
          "indices": 9,
          "material": 0,
          "mode": 4
        }
      ]
    }
  ],
  "nodes": [
    {
      "children": [
        1
      ],
      "name": "RootNode (gltf orientation matrix)",
      "rotation": [
        -0.70710678118654746,
        -0,
        -0,
        0.70710678118654757
      ]
    },
    {
      "children": [
        2
      ],
      "name": "RootNode (model correction matrix)"
    },
    {
      "children": [
        3,
        5
      ],
      "matrix": [
        1,
        0,
        0,
        0,
        0,
        -4.3711390063094768e-08,
        0.999999999999999,
        0,
        0,
        -0.999999999999999,
        -4.3711390063094768e-08,
        0,
        0,
        0,
        0,
        1
      ],
      "name": "Collada visual scene group"
    },
    {
      "children": [
        4
      ],
      "name": "Box001"
    },
    {
      "mesh": 0,
      "name": "defaultMaterial"
    },
    {
      "children": [
        6
      ],
      "name": "Group31367"
    },
    {
      "mesh": 1,
      "name": "defaultMaterial"
    }
  ],
  "samplers": [
    {
      "magFilter": 9729,
      "minFilter": 9987,
      "wrapS": 10497,
      "wrapT": 10497
    }
  ],
  "scene": 0,
  "scenes": [
    {
      "name": "OSG_Scene",
      "nodes": [
        0
      ]
    }
  ],
  "textures": [
    {
      "sampler": 0,
      "source": 0
    },
    {
      "sampler": 0,
      "source": 1
    },
    {
      "sampler": 0,
      "source": 2
    }
  ]
}

